<svg width="224" height="39" viewBox="0 0 224 39" fill="none" xmlns="http://www.w3.org/2000/svg">
<path d="M8.312 38C7.512 38 6.344 38 4.808 38C3.304 38 2.28 37.888 1.736 37.664C1.192 37.44 0.92 37.088 0.92 36.608V6.32C0.92 5.584 1.896 5.008 3.848 4.592C5.832 4.144 7.944 3.92 10.184 3.92C12.424 3.92 14.024 4.208 14.984 4.784C15.944 5.36 16.504 5.968 16.664 6.608L19.928 19.28H20.36L23.432 7.184C23.656 6.32 24.696 5.568 26.552 4.928C28.44 4.256 30.504 3.92 32.744 3.92C34.984 3.92 36.632 4.096 37.688 4.448C38.776 4.8 39.32 5.248 39.32 5.792V36.608C39.32 37.024 38.408 37.36 36.584 37.616C34.76 37.872 32.536 38 29.912 38C27.288 38 25.976 37.536 25.976 36.608C25.976 34.08 26.248 29.584 26.792 23.12H26.36L23.864 35.648C23.768 36.128 23.368 36.48 22.664 36.704C21.992 36.928 20.968 37.04 19.592 37.04C18.216 37.04 17.368 36.944 17.048 36.752C16.76 36.56 16.568 36.192 16.472 35.648L13.88 23.12H13.448C14.024 29.712 14.312 34.208 14.312 36.608C14.312 37.44 12.312 37.904 8.312 38ZM55.5384 27.152C55.5384 29.232 56.5304 30.272 58.5144 30.272C59.6664 30.272 61.1704 29.888 63.0264 29.12C64.8824 28.32 65.8584 27.92 65.9544 27.92C66.5624 27.92 67.3624 28.832 68.3544 30.656C69.3464 32.48 69.8424 33.824 69.8424 34.688C69.8424 35.936 68.5624 36.88 66.0024 37.52C63.4424 38.16 60.9304 38.48 58.4664 38.48C56.0344 38.48 53.9864 38.288 52.3224 37.904C50.6904 37.52 49.3464 37.04 48.2904 36.464C47.2664 35.856 46.3544 35.12 45.5544 34.256C44.7864 33.392 44.2104 32.576 43.8264 31.808C43.4424 31.008 43.1384 30.128 42.9144 29.168C42.5944 27.76 42.4344 26.304 42.4344 24.8C42.4344 18.976 43.9544 14.96 46.9944 12.752C48.4984 11.632 50.1784 10.848 52.0344 10.4C53.8904 9.952 56.0824 9.728 58.6104 9.728C66.7064 9.728 70.7544 12.544 70.7544 18.176C70.7544 24.16 66.2104 27.152 57.1224 27.152H55.5384ZM55.4424 20.144V23.312C56.3704 23.312 57.1224 22.944 57.6984 22.208C58.3064 21.472 58.6104 20.576 58.6104 19.52C58.6104 17.6 58.1144 16.64 57.1224 16.64C56.0024 16.64 55.4424 17.808 55.4424 20.144ZM87.1055 35.552C87.0415 36.48 86.5455 37.12 85.6175 37.472C84.7215 37.824 83.0895 38 80.7215 38C78.3535 38 76.3695 37.792 74.7695 37.376C73.2015 36.928 72.4175 36.368 72.4175 35.696C72.4175 34.928 73.8415 30.032 76.6895 21.008C79.5375 11.952 81.1695 6.736 81.5855 5.36C81.7455 4.944 83.0255 4.608 85.4255 4.352C87.8575 4.064 90.4495 3.92 93.2015 3.92C95.9855 3.92 97.5215 4.4 97.8095 5.36C103.858 25.456 106.882 35.664 106.882 35.984C106.882 36.304 106.69 36.624 106.306 36.944C105.41 37.648 103.634 38 100.978 38C95.3135 38 92.4175 37.328 92.2895 35.984L91.9535 32.864H87.3455L87.1055 35.552ZM90.9455 23.744L90.2255 15.104H89.1695L88.3535 23.744H90.9455ZM116.626 38.432C115.442 38.432 114.338 38.256 113.314 37.904C112.29 37.552 111.442 37.12 110.77 36.608C110.13 36.096 109.57 35.408 109.09 34.544C108.61 33.68 108.242 32.864 107.986 32.096C107.73 31.296 107.538 30.32 107.41 29.168C107.218 27.472 107.122 25.536 107.122 23.36C107.122 18.912 107.938 15.536 109.57 13.232C111.202 10.896 113.442 9.728 116.29 9.728C119.202 9.728 121.314 10.416 122.626 11.792C122.914 12.112 123.138 12.496 123.298 12.944H123.682L123.106 9.632V3.632C123.106 2.928 124.002 2.24 125.794 1.568C127.586 0.895998 129.522 0.559999 131.602 0.559999C133.778 0.559999 135.17 0.975999 135.778 1.808C136.002 2.128 136.114 2.448 136.114 2.768V36.848C136.114 37.2 135.218 37.488 133.426 37.712C131.666 37.904 129.954 38 128.29 38C126.658 38 125.602 37.952 125.122 37.856C124.674 37.728 124.386 37.6 124.258 37.472C124.162 37.344 124.098 37.136 124.066 36.848L123.682 34.112H123.298C123.01 35.232 122.434 36.176 121.57 36.944C120.482 37.936 118.834 38.432 116.626 38.432ZM122.002 31.424C122.514 31.424 122.898 31.104 123.154 30.464V17.648C123.154 17.328 122.978 17.088 122.626 16.928C122.306 16.736 122.018 16.64 121.762 16.64C120.674 16.64 120.13 19.136 120.13 24.128C120.13 26.784 120.274 28.672 120.562 29.792C120.882 30.88 121.362 31.424 122.002 31.424ZM154.261 38.432C151.861 38.432 149.797 38.224 148.069 37.808C146.341 37.392 144.773 36.656 143.365 35.6C140.453 33.488 138.997 29.552 138.997 23.792C138.997 18.672 140.485 15.008 143.461 12.8C146.245 10.752 149.845 9.728 154.261 9.728C156.149 9.728 157.765 9.824 159.109 10.016C160.453 10.176 161.813 10.544 163.189 11.12C164.597 11.696 165.717 12.48 166.549 13.472C167.413 14.464 168.117 15.84 168.661 17.6C169.205 19.328 169.477 21.392 169.477 23.792C169.477 28.656 168.101 32.32 165.349 34.784C162.597 37.216 158.901 38.432 154.261 38.432ZM152.581 29.072C152.805 30.224 153.029 30.912 153.253 31.136C153.509 31.36 153.829 31.472 154.213 31.472C154.629 31.472 154.949 31.36 155.173 31.136C155.429 30.912 155.653 30.224 155.845 29.072C156.069 27.92 156.181 26.48 156.181 24.752C156.181 22.992 156.133 21.648 156.037 20.72C155.973 19.76 155.877 19.024 155.749 18.512C155.653 18 155.509 17.6 155.317 17.312C155.029 16.896 154.677 16.688 154.261 16.688C153.877 16.688 153.557 16.816 153.301 17.072C153.045 17.296 152.805 18 152.581 19.184C152.357 20.336 152.245 21.984 152.245 24.128C152.245 26.272 152.357 27.92 152.581 29.072ZM191.2 37.568C190.624 38.112 189.312 38.384 187.264 38.384C185.216 38.384 183.52 38.256 182.176 38C180.832 37.712 179.552 37.168 178.336 36.368C176 34.8 174.832 31.536 174.832 26.576V19.088H172.432C172.08 19.088 171.776 18.72 171.52 17.984C171.264 17.248 171.136 16.24 171.136 14.96C171.136 13.68 171.328 12.56 171.712 11.6C172.128 10.608 172.656 10.112 173.296 10.112H174.832V4.304C174.832 3.312 175.792 2.512 177.712 1.904C179.664 1.296 181.568 0.991999 183.424 0.991999C186.336 0.991999 187.792 1.712 187.792 3.152V10.112H191.344C192.176 10.112 192.592 11.312 192.592 13.712C192.592 15.28 192.4 16.576 192.016 17.6C191.664 18.592 191.2 19.088 190.624 19.088H187.792V27.872C187.792 28.736 188.16 29.36 188.896 29.744C189.632 30.096 190.272 30.272 190.816 30.272C191.392 30.272 191.744 30.544 191.872 31.088C192 31.632 192.064 32.448 192.064 33.536C192.064 35.68 191.776 37.024 191.2 37.568ZM208.117 27.152C208.117 29.232 209.109 30.272 211.093 30.272C212.245 30.272 213.749 29.888 215.605 29.12C217.461 28.32 218.437 27.92 218.533 27.92C219.141 27.92 219.941 28.832 220.932 30.656C221.925 32.48 222.421 33.824 222.421 34.688C222.421 35.936 221.141 36.88 218.581 37.52C216.021 38.16 213.509 38.48 211.045 38.48C208.613 38.48 206.565 38.288 204.901 37.904C203.269 37.52 201.925 37.04 200.868 36.464C199.845 35.856 198.933 35.12 198.133 34.256C197.365 33.392 196.789 32.576 196.405 31.808C196.021 31.008 195.717 30.128 195.493 29.168C195.173 27.76 195.013 26.304 195.013 24.8C195.013 18.976 196.533 14.96 199.573 12.752C201.077 11.632 202.757 10.848 204.613 10.4C206.469 9.952 208.661 9.728 211.189 9.728C219.285 9.728 223.333 12.544 223.333 18.176C223.333 24.16 218.789 27.152 209.701 27.152H208.117ZM208.021 20.144V23.312C208.949 23.312 209.701 22.944 210.277 22.208C210.885 21.472 211.189 20.576 211.189 19.52C211.189 17.6 210.693 16.64 209.701 16.64C208.581 16.64 208.021 17.808 208.021 20.144Z" fill="white"/>
</svg>
